Taking Lives (2004) BRrip x264 


Director: D.J. Caruso
Writers: Michael Pye (novel), Jon Bokenkamp (screen story)
Stars: Angelina Jolie, Ethan Hawke and Kiefer Sutherland


Video
ID                               : 0
Format                           : AVC
Format/Info                      : Advanced Video Codec
Format profile                   : High@L5.1
Format settings, CABAC           : Yes
Format settings, ReFrames        : 5 frames
Codec ID                         : h264
Duration                         : 1h 49mn
Bit rate                         : 400 Kbps
Width                            : 688 pixels
Height                           : 288 pixels
Display aspect ratio             : 2.35:1
Frame rate                       : 23.976 fps
Color space                      : YUV
Chroma subsampling               : 4:2:0
Bit depth                        : 8 bits
Scan type                        : Progressive
Bits/(Pixel*Frame)               : 0.084
Stream size                      : 313 MiB (83%)
Writing library                  : x264 core


Audio
ID                               : 1
Format                           : MPEG Audio
Format version                   : Version 1
Format profile                   : Layer 3
Mode                             : Joint stereo
Mode extension                   : MS Stereo
Codec ID                         : 55
Codec ID/Hint                    : MP3
Duration                         : 1h 49mn
Bit rate mode                    : Variable
Bit rate                         : 68.1 Kbps
Channel(s)                       : 2 channels
Sampling rate                    : 48.0 KHz
Stream size                      : 53.1 MiB (14%)
Alignment                        : Aligned on interleaves
Interleave, duration             : 24 ms (0.58 video frame)
Interleave, preload duration     : 236 ms
Writing library                  : LAME3.97


Screens
 
http://www.shotpix.com/images/14290564079862184650.jpg 
http://www.shotpix.com/images/55121077444053652814.jpg 
http://www.shotpix.com/images/97564116588021479821.jpg 
http://www.shotpix.com/images/58516392219168344849.jpg 
http://www.shotpix.com/images/54073090482334177639.jpg 
http://www.shotpix.com/images/03559379145492721857.jpg 
http://www.shotpix.com/images/09320975726377188573.jpg